<svg width="54" height="49" viewBox="0 0 54 49" fill="none" xmlns="http://www.w3.org/2000/svg">
<path d="M29.5 42.75H20.5V18.25H29.5V22.3333C31.4184 20.1186 34.3277 18.7983 37.4313 18.7339C43.0126 18.762 47.5162 22.8833 47.5 27.9479V42.75H38.5V28.9688C38.1401 26.6874 35.984 24.9948 33.4443 24.9998C32.3334 25.0316 31.2848 25.473 30.5405 26.2219C29.7962 26.9709 29.4205 27.9628 29.5 28.9688V42.75ZM16 42.75H7V18.25H16V42.75ZM11.5 14.1667C9.01472 14.1667 7 12.3385 7 10.0833C7 7.82817 9.01472 6 11.5 6C13.9853 6 16 7.82817 16 10.0833C16 11.1663 15.5259 12.2049 14.682 12.9707C13.8381 13.7365 12.6935 14.1667 11.5 14.1667Z" fill="#0F2B4B"/>
</svg>
