<svg width="54" height="49" viewBox="0 0 54 49" fill="none" xmlns="http://www.w3.org/2000/svg">
<path d="M27.0585 4.08334C16.0491 4.08206 6.66412 11.3271 4.90143 21.1883C3.13875 31.0494 9.51887 40.6148 19.9643 43.7713C21.0893 43.9551 21.492 43.3283 21.492 42.7893C21.492 42.3054 21.474 41.0232 21.4673 39.3184C15.2235 40.5434 13.905 36.5867 13.905 36.5867C13.494 35.3555 12.6103 34.2986 11.4143 33.6079C9.38929 32.3441 11.5695 32.3727 11.5695 32.3727C13.0111 32.552 14.2798 33.3271 15.0053 34.4715C15.6194 35.4847 16.654 36.2334 17.8792 36.5512C19.1045 36.869 20.4188 36.7296 21.5303 36.1641C21.6347 35.131 22.1412 34.1654 22.959 33.4405C17.9775 32.928 12.7395 31.1803 12.7395 23.3751C12.7119 21.3562 13.5381 19.4046 15.048 17.9218C14.3648 16.1645 14.4453 14.2371 15.273 12.5318C15.273 12.5318 17.1563 11.9826 21.4425 14.6163C25.1187 13.7017 28.9984 13.7017 32.6745 14.6163C36.963 11.9805 38.844 12.5318 38.844 12.5318C39.6756 14.2363 39.7561 16.1651 39.069 17.9218C40.5845 19.4045 41.41 21.3612 41.373 23.3832C41.373 31.2089 36.1305 32.928 31.131 33.4323C32.2095 34.4328 32.7626 35.8054 32.6498 37.2012C32.6498 39.9248 32.6228 42.1216 32.6228 42.7893C32.6228 43.3344 33.0233 43.9673 34.1685 43.7672C44.6096 40.6054 50.9829 31.0394 49.2166 21.1809C47.4503 11.3224 38.0657 4.08106 27.0585 4.08334Z" fill="#0F2B4B"/>
</svg>
